<?xml version="1.0" encoding="UTF-8"?>
<svg version="1.1" xmlns="http://www.w3.org/2000/svg" width="1400" height="1200">
<path d="M0 0 C9.44368409 7.56737318 17.47293132 16.24268262 21.53125 27.81640625 C22.90271918 30.5931752 23.79327975 31.30590988 26.70239258 32.51611328 C36.45975525 35.18540253 46.1438085 36.78251946 56.16064453 38.08520508 C67.4626638 39.5772429 79.94313518 41.57030462 87.96875 50.37890625 C92.33607984 57.11041731 94.18549667 62.41216778 92.5625 70.37109375 C90.42478484 77.59994632 84.80886463 83.03479303 78.34375 86.69140625 C64.75440952 92.42054866 49.20031826 92.4684072 34.70825195 93.53295898 C12.5340162 95.1886894 -15.61991042 98.13190825 -31.59765625 115.52734375 C-40.51002701 127.03814414 -38.97880086 142.96479224 -37.26196289 156.69677734 C-32.10810691 192.84097803 -13.56360655 226.14738206 4.97314453 257.046875 C7.2122726 260.78551214 9.43357548 264.53441576 11.65234375 268.28515625 C18.11498859 279.20319588 24.58636364 290.1152054 31.16015625 300.96679688 C67.39179124 360.89562394 80.65634091 430.64308127 63.79345703 499.26025391 C53.53688856 538.04574997 34.61334021 573.40374226 7.96875 603.37890625 C7.370625 604.075 6.7725 604.77109375 6.15625 605.48828125 C4.4499529 607.4734923 2.71581028 609.42944264 0.96875 611.37890625 C0.55044922 611.8476416 0.13214844 612.31637695 -0.29882812 612.79931641 C-11.52997953 625.33868608 -23.59567472 636.24538914 -37.03125 646.37890625 C-37.86197021 647.01094971 -37.86197021 647.01094971 -38.70947266 647.65576172 C-48.61657507 655.14678306 -59.14751074 661.41422677 -70.03125 667.37890625 C-70.69318359 667.74226074 -71.35511719 668.10561523 -72.03710938 668.47998047 C-106.66207881 687.21872688 -147.62878978 698.38844722 -187.11328125 698.58203125 C-188.04814865 698.58773132 -188.98301605 698.5934314 -189.94621277 698.5993042 C-191.91684869 698.60868989 -193.88749984 698.61526234 -195.8581543 698.61914062 C-198.79831211 698.62875763 -201.73774252 698.65980671 -204.67773438 698.69140625 C-221.90615059 698.78860809 -238.60897524 696.86706421 -255.34375 692.69140625 C-256.37226074 692.43794434 -257.40077148 692.18448242 -258.46044922 691.92333984 C-279.64453382 686.54750349 -300.33149332 680.58349356 -316.34765625 665.08984375 C-318.92293705 663.02799331 -318.92293705 663.02799331 -321.9453125 663.859375 C-325.34552154 665.53365515 -328.62092158 667.32743847 -331.84375 669.31640625 C-332.49698242 669.71335693 -333.15021484 670.11030762 -333.82324219 670.51928711 C-339.2378019 673.83297193 -344.53895077 677.31210076 -349.84448242 680.79638672 C-356.07771788 684.84740035 -362.46168464 688.63000513 -368.87112427 692.39318848 C-384.24878928 701.42025625 -384.24878928 701.42025625 -399.03125 711.37890625 C-399.5895752 711.77787109 -400.14790039 712.17683594 -400.72314453 712.58789062 C-426.33437389 731.13219651 -449.60264605 757.53894898 -454.77734375 789.67578125 C-458.14535429 813.62487709 -454.45862284 837.84298753 -451.01953125 861.5859375 C-450.72486739 863.64957451 -450.4306227 865.71327142 -450.13676453 867.77702332 C-449.52299653 872.07760171 -448.90490796 876.37752864 -448.28344727 880.67700195 C-447.50735646 886.04793622 -446.74110735 891.42021639 -445.97783947 896.79298592 C-440.80790312 933.14801467 -435.57829023 969.51733386 -427.59375 1005.37890625 C-426.9250007 1008.42809324 -426.25916137 1011.47789645 -425.59495544 1014.52807617 C-425.19201316 1016.37400495 -424.78601126 1018.21926962 -424.37635803 1020.0637207 C-423.03125 1026.16214376 -423.03125 1026.16214376 -423.03125 1028.37890625 C-416.10368929 1030.86849838 -409.25747893 1032.45386631 -402.03125 1033.81640625 C-399.80698096 1034.25363064 -397.58302251 1034.69243799 -395.359375 1035.1328125 C-392.38285014 1035.71967658 -389.40638976 1036.30636891 -386.42773438 1036.88232422 C-365.02853003 1041.08478642 -348.45566715 1052.6336243 -336.0625 1070.6171875 C-335.04577074 1072.13772499 -334.03533435 1073.66248923 -333.03125 1075.19140625 C-332.54978516 1075.92101563 -332.06832031 1076.650625 -331.57226562 1077.40234375 C-327.25396742 1084.169547 -327.25396742 1084.169547 -327.03125 1088.37890625 C-328.25850179 1092.33338423 -329.15705351 1094.70644741 -332.46875 1097.25390625 C-336.43512679 1098.9952424 -339.76511632 1099.50482097 -344.09002686 1099.51934814 C-345.62072311 1099.52791336 -345.62072311 1099.52791336 -347.18234253 1099.53665161 C-348.29618317 1099.53776947 -349.4100238 1099.53888733 -350.55761719 1099.54003906 C-351.73528656 1099.54500397 -352.91295593 1099.54996887 -354.12631226 1099.55508423 C-357.35378821 1099.56718041 -360.58122798 1099.57464793 -363.8087225 1099.57909489 C-365.82763636 1099.58203054 -367.8465446 1099.58613631 -369.86545563 1099.59059906 C-376.18939587 1099.60426767 -382.51332319 1099.61393702 -388.83727717 1099.61780095 C-396.12374407 1099.62227808 -403.41002305 1099.63981245 -410.69643283 1099.66880155 C-416.33736003 1099.69046062 -421.97823453 1099.7005075 -427.61920285 1099.70184207 C-430.9841315 1099.70288723 -434.34888334 1099.70873277 -437.71376801 1099.72666168 C-441.47175779 1099.74374182 -445.22929169 1099.74183668 -448.98730469 1099.73535156 C-450.0930484 1099.74456635 -451.19879211 1099.75378113 -452.33804321 1099.76327515 C-459.71939673 1099.72343202 -466.78553653 1099.05546661 -472.4453125 1093.7421875 C-472.97568115 1093.25169922 -473.5060498 1092.76121094 -474.05249023 1092.25585938 C-474.58173096 1091.73958984 -475.11097168 1091.22332031 -475.65625 1090.69140625 C-476.21965088 1090.15322266 -476.78305176 1089.61503906 -477.36352539 1089.06054688 C-493.87479809 1073.02692257 -498.69646631 1051.91173457 -501.96646118 1029.89001465 C-502.78239975 1024.41947241 -503.64806662 1018.95660279 -504.50390625 1013.4921875 C-504.69649521 1012.25632904 -504.88908417 1011.02047058 -505.08750916 1009.74716187 C-513.06039023 958.68900712 -521.78716977 907.75834756 -531.23736191 856.95347595 C-531.83074452 853.76136934 -532.42210125 850.56889297 -533.01309204 847.37634277 C-537.19670124 824.80767324 -541.58774372 802.29291755 -546.35546875 779.83984375 C-546.56217508 778.86344248 -546.76888142 777.88704121 -546.98185158 776.88105202 C-549.84104507 763.41492918 -552.97442632 750.07234307 -556.65625 736.8046875 C-561.62750923 718.17686746 -561.56883169 700.42296859 -551.96875 683.37890625 C-544.70055194 670.98172618 -536.09841653 659.4366261 -527.66821289 647.82006836 C-523.2894981 641.77333424 -519.08097008 635.65251108 -515.03125 629.37890625 C-514.36609375 628.39277344 -513.7009375 627.40664063 -513.015625 626.390625 C-507.2398799 617.53962631 -503.59117416 608.29107007 -500.03125 598.37890625 C-504.19742819 601.37265554 -506.95913079 604.7418464 -509.71875 609.00390625 C-510.14518799 609.65053223 -510.57162598 610.2971582 -511.01098633 610.96337891 C-514.33544542 616.09226597 -517.30351391 621.38461714 -520.21875 626.75390625 C-531.30163148 647.13570008 -531.30163148 647.13570008 -541.03125 650.37890625 C-550.43548996 651.1164937 -557.04882465 647.08736127 -564.34375 641.75390625 C-565.0864917 641.21830078 -565.8292334 640.68269531 -566.59448242 640.13085938 C-577.3046918 632.34668896 -586.83137054 623.86778716 -596.03125 614.37890625 C-595.9590625 615.013125 -595.886875 615.64734375 -595.8125 616.30078125 C-595.13490572 623.11436821 -594.86631728 629.91099431 -594.78125 636.75390625 C-594.7493457 638.0373291 -594.7493457 638.0373291 -594.71679688 639.34667969 C-594.68417124 645.29619659 -595.62666366 649.47336443 -599.53125 654.19140625 C-603.60393748 657.41561717 -609.13269049 656.78651298 -614.03125 656.37890625 C-626.35947082 653.43226648 -635.68459949 643.52010871 -642.21875 633.12890625 C-651.28854495 617.60702139 -651.28854495 617.60702139 -654.03125 609.37890625 C-654.07612549 609.96792725 -654.12100098 610.55694824 -654.16723633 611.16381836 C-654.38106994 613.88240788 -654.61230974 616.5992612 -654.84375 619.31640625 C-654.91400391 620.24259766 -654.98425781 621.16878906 -655.05664062 622.12304688 C-655.70351123 629.49737177 -656.63728689 636.49387378 -661.46875 642.31640625 C-666.17187246 646.10184628 -669.59930545 646.84590032 -675.57421875 646.6796875 C-681.05223342 646.00908793 -684.02705144 642.5910697 -687.40625 638.56640625 C-700.51206247 620.86054039 -705.8382735 600.6411089 -710.03125 579.37890625 C-710.41107969 577.48039296 -710.79126863 575.58195149 -711.171875 573.68359375 C-711.45845813 572.24872284 -711.74496594 570.81383686 -712.03125 569.37890625 C-712.38316406 570.40628906 -712.73507812 571.43367187 -713.09765625 572.4921875 C-717.31161407 584.4565851 -722.54198369 597.68534646 -733.96484375 604.5390625 C-737.62215499 606.02549334 -741.15872182 605.9051383 -745.03125 605.37890625 C-751.81377959 602.24850798 -754.62879038 596.86795213 -757.3125 590.19140625 C-766.78745274 563.3842229 -768.55543359 535.33308572 -763.39501953 507.41259766 C-762.85822825 504.41161015 -762.44330619 501.39931813 -762.03125 498.37890625 C-763.04832031 499.86777344 -763.04832031 499.86777344 -764.0859375 501.38671875 C-766.55328193 504.99300938 -769.03291964 508.59067905 -771.51757812 512.18505859 C-772.47763916 513.5765277 -773.43500196 514.96986551 -774.38867188 516.36572266 C-787.99471365 536.26222895 -787.99471365 536.26222895 -795.65625 539.12890625 C-800.04292325 539.45384501 -802.27240108 538.64839994 -806.03125 536.37890625 C-816.51329021 525.02336269 -814.49376112 503.73962233 -814.03125 489.37890625 C-812.39838797 457.55137203 -799.66066374 427.69696568 -784.03125 400.37890625 C-784.59070313 400.90097656 -785.15015625 401.42304688 -785.7265625 401.9609375 C-792.8605552 408.50998867 -800.31039969 414.53939572 -808.03125 420.37890625 C-808.61406738 420.82395508 -809.19688477 421.26900391 -809.79736328 421.72753906 C-821.89951772 430.8883157 -821.89951772 430.8883157 -829.03125 430.37890625 C-833.3073495 428.66846645 -834.99496576 426.42859514 -837.03125 422.37890625 C-841.14113357 395.05373443 -824.87342361 364.93285007 -809.3359375 343.76635742 C-756.3504474 273.73496161 -657.38445485 238.38449451 -575.03125 217.37890625 C-573.91782227 217.09208984 -572.80439453 216.80527344 -571.65722656 216.50976562 C-485.58290332 194.61554874 -394.41930004 194.4996887 -266.7734375 249.90625 C-244.51634516 263.19301472 -222.83392149 279.17996583 -204.6809082 297.75170898 C-202.96611863 299.44315083 -201.18045463 301.0089845 -199.34375 302.56640625 C-191.63130055 309.22852211 -184.46981235 316.55996129 -177.87109375 324.3203125 C-175.07427058 327.44966666 -172.06649652 330.36432254 -169.08007812 333.31054688 C-165.83107958 336.53273112 -162.80673608 339.87240099 -159.83984375 343.3515625 C-156.92888641 346.61460108 -153.78816439 349.64191066 -150.65625 352.69140625 C-148.57930809 354.81779916 -146.6235339 356.96675783 -144.6796875 359.2109375 C-129.24046138 376.9956262 -104.07658948 403.62104258 -79.04296875 405.6171875 C-72.09192421 405.77238121 -67.57145018 405.74034043 -62.03125 401.37890625 C-56.33606462 395.68372087 -54.66387478 388.71792005 -54.51171875 380.92138672 C-54.52138672 379.57004639 -54.52138672 379.57004639 -54.53125 378.19140625 C-54.54091797 376.75498779 -54.54091797 376.75498779 -54.55078125 375.28955078 C-55.38439025 341.85195835 -74.48271505 309.35998275 -90.71875 281.16796875 C-119.55408139 231.04860118 -142.95145899 179.99269871 -151.03125 122.37890625 C-151.13655029 121.68168457 -151.24185059 120.98446289 -151.3503418 120.26611328 C-155.95086289 85.94265836 -152.29157662 46.4904628 -132.0234375 17.5078125 C-130.10874798 15.04124189 -128.12014005 12.69897781 -126.03125 10.37890625 C-125.44085937 9.69570313 -124.85046875 9.0125 -124.2421875 8.30859375 C-93.14838556 -25.4314892 -35.60226106 -26.04076273 0 0 Z M-119.15625 18.50390625 C-134.83716606 36.99853507 -141.35624739 62.57772715 -142.03125 86.37890625 C-142.07121094 87.55839844 -142.11117187 88.73789063 -142.15234375 89.953125 C-142.9541442 136.59904503 -129.24150265 181.7845933 -109.03125 223.37890625 C-108.68916504 224.08805176 -108.34708008 224.79719727 -107.99462891 225.52783203 C-106.12862562 229.38050618 -104.20710645 233.2019036 -102.24951172 237.00878906 C-101.33645635 238.78513006 -100.42726513 240.56345816 -99.52001953 242.34277344 C-93.5597734 254.02659606 -87.55458214 265.65834357 -80.96875 277.00390625 C-36.75265663 353.41203023 -36.75265663 353.41203023 -45.15625 392.87890625 C-47.5161392 400.95571013 -51.9584148 407.70816602 -59.03125 412.37890625 C-70.3018949 417.79166462 -80.34682031 417.4519997 -92.03125 413.37890625 C-103.01766801 408.87585247 -112.70047195 402.65360772 -122.03125 395.37890625 C-122.99417969 394.64027344 -123.95710937 393.90164063 -124.94921875 393.140625 C-132.93811771 386.69251765 -140.15057846 379.43887466 -147.40625 372.19140625 C-147.92862244 371.67012146 -148.45099487 371.14883667 -148.98919678 370.61175537 C-154.3687538 365.23093004 -159.64785529 359.8087038 -164.60009766 354.02612305 C-166.47514141 351.8679995 -168.47997419 349.86894995 -170.53125 347.87890625 C-173.21052764 345.27960704 -175.71593675 342.60492749 -178.14355469 339.77319336 C-182.13256866 335.20105718 -186.35449131 330.89396744 -190.640625 326.6015625 C-191.44808167 325.79077744 -192.25553833 324.97999237 -193.08746338 324.14463806 C-194.78714181 322.43992584 -196.48815175 320.73654026 -198.19042969 319.03442383 C-200.76526708 316.45740272 -203.33199516 313.87248771 -205.8984375 311.28710938 C-213.96071562 303.19714969 -221.93998844 295.31777999 -231.03125 288.37890625 C-232.1903553 287.43971087 -233.34696721 286.49742186 -234.5 285.55078125 C-249.15058615 273.84541603 -264.67525935 263.53903894 -281.03125 254.37890625 C-281.68174316 254.00846191 -282.33223633 253.63801758 -283.00244141 253.25634766 C-317.04206839 233.96184013 -355.39734829 222.46780387 -393.84375 216.12890625 C-394.7601123 215.97760254 -395.67647461 215.82629883 -396.62060547 215.67041016 C-415.37339387 212.78159941 -434.01696772 212.00312931 -452.96875 212.06640625 C-454.71779129 212.06963898 -454.71779129 212.06963898 -456.50216675 212.07293701 C-474.5399208 212.12631912 -492.16744048 212.7107494 -510.03125 215.37890625 C-511.44920759 215.58503774 -512.86717689 215.79108865 -514.28515625 215.99707031 C-534.81764396 219.01686219 -554.96633615 223.03588999 -575.03125 228.37890625 C-576.13710449 228.66958984 -577.24295898 228.96027344 -578.38232422 229.25976562 C-620.746364 240.50718542 -661.58935589 256.35314289 -701.03125 275.37890625 C-702.04461426 275.86633301 -703.05797852 276.35375977 -704.10205078 276.85595703 C-729.88914908 289.32262373 -754.6816675 303.85631076 -775.82421875 323.359375 C-777.74607152 325.11795532 -779.70772489 326.787104 -781.71875 328.44140625 C-785.58095602 331.74802811 -788.80838967 335.45515203 -792.03125 339.37890625 C-792.4442334 339.8795459 -792.8572168 340.38018555 -793.28271484 340.89599609 C-811.64545683 363.28490005 -826.86785486 389.72591179 -826.03125 419.37890625 C-817.87657898 414.59069261 -810.81506659 409.05252154 -803.72705078 402.85693359 C-802.03378214 401.38111322 -800.32976139 399.91888999 -798.62109375 398.4609375 C-793.83423097 394.37591308 -789.0507227 390.28989286 -784.33984375 386.1171875 C-766.84915982 370.66594018 -748.68344879 358.22757093 -727.03125 349.37890625 C-729.08064952 353.20752722 -731.11434257 355.49175645 -734.59375 358.06640625 C-770.34225572 385.96263904 -796.85965771 435.97134268 -802.6484375 480.6328125 C-803.2703623 486.96945757 -803.25508451 493.32992141 -803.28125 499.69140625 C-803.301875 500.93341797 -803.3225 502.17542969 -803.34375 503.45507812 C-803.37709303 511.40322278 -802.78242318 518.85781086 -800.03125 526.37890625 C-799.37125 527.03890625 -798.71125 527.69890625 -798.03125 528.37890625 C-793.23806382 523.84592411 -789.19321484 519.1924343 -785.46875 513.75390625 C-784.70957275 512.66190918 -784.70957275 512.66190918 -783.93505859 511.54785156 C-776.24741334 500.43436866 -768.7884291 489.15771295 -761.41796875 477.83203125 C-751.28731132 462.33078859 -740.08769632 445.33390297 -724.03125 435.37890625 C-723.04125 435.37890625 -722.05125 435.37890625 -721.03125 435.37890625 C-721.35996094 435.86617188 -721.68867187 436.3534375 -722.02734375 436.85546875 C-723.06916066 438.40831238 -724.10337223 439.96626767 -725.1328125 441.52734375 C-726.43695098 443.48623489 -727.766639 445.42828157 -729.1171875 447.35546875 C-740.90169257 464.68075866 -747.1368734 484.1516111 -752.03125 504.37890625 C-752.22477051 505.15202148 -752.41829102 505.92513672 -752.61767578 506.72167969 C-757.75043356 527.98806292 -757.07991171 553.41468571 -751.03125 574.37890625 C-750.82274414 575.10432617 -750.61423828 575.82974609 -750.39941406 576.57714844 C-747.69496172 585.91854461 -747.69496172 585.91854461 -743.03125 594.37890625 C-742.04125 594.70890625 -741.05125 595.03890625 -740.03125 595.37890625 C-728.6366911 589.40914822 -724.59435911 573.75962107 -720.98513794 562.36988831 C-720.18032416 559.79186406 -719.38517588 557.21106994 -718.59375 554.62890625 C-705.6997092 512.62456425 -705.6997092 512.62456425 -693.03125 500.37890625 C-693.20253418 501.16724854 -693.37381836 501.95559082 -693.55029297 502.76782227 C-703.01174392 546.79455371 -705.42773969 590.25342505 -680.43359375 629.9140625 C-678.27196009 633.04870773 -676.86424716 635.01083774 -673.34375 636.56640625 C-671.0380541 636.54961674 -671.0380541 636.54961674 -669.34375 635.37890625 C-665.04570209 628.82949991 -665.57958738 620.59649965 -665.21875 613.06640625 C-664.54725006 601.32791646 -663.31040841 589.76027636 -661.59375 578.12890625 C-661.49033295 577.41092865 -661.38691589 576.69295105 -661.28036499 575.95321655 C-658.16534027 554.51299652 -658.16534027 554.51299652 -655.03125 551.37890625 C-654.96655518 552.09731689 -654.90186035 552.81572754 -654.83520508 553.5559082 C-653.44016033 568.57090052 -651.69545285 583.00507287 -647.03125 597.37890625 C-646.70084717 598.4153125 -646.70084717 598.4153125 -646.36376953 599.47265625 C-641.07146614 615.70699868 -632.63114483 634.46503031 -617.47265625 643.69140625 C-614.40365772 645.19629543 -612.90735501 645.86143993 -609.59375 645.62890625 C-607.8303125 645.50515625 -607.8303125 645.50515625 -606.03125 645.37890625 C-604.74650841 641.52468147 -605.10200127 638.05788355 -605.34375 634.06640625 C-605.39007568 633.22319824 -605.43640137 632.37999023 -605.48413086 631.51123047 C-605.74492571 627.07893849 -606.08356561 622.66581198 -606.546875 618.25 C-608.15397531 602.9170833 -608.24264989 587.78507948 -608.03125 572.37890625 C-606.00049728 575.67725167 -604.53608989 578.61304215 -603.40625 582.31640625 C-598.91242227 594.93303959 -590.37330211 605.03685414 -581.03125 614.37890625 C-580.20238281 615.20777344 -579.37351562 616.03664063 -578.51953125 616.890625 C-563.52520977 631.27892216 -563.52520977 631.27892216 -545.21875 640.00390625 C-540.17002372 639.01395992 -538.01673847 635.39557568 -535.03125 631.37890625 C-532.5671026 627.38530003 -530.36117917 623.26996142 -528.15625 619.12890625 C-515.68366764 596.30884712 -515.68366764 596.30884712 -506.03125 589.37890625 C-506.711875 588.86328125 -507.3925 588.34765625 -508.09375 587.81640625 C-514.73724905 582.30371555 -520.22314354 577.15215324 -522.03125 568.37890625 C-523.43955578 552.7951947 -518.59437216 538.7452679 -512.421875 524.6953125 C-510.90235104 521.67086446 -510.90235104 521.67086446 -511.03125 519.37890625 C-517.89111908 520.82308921 -524.63057251 522.60094028 -531.3828125 524.4765625 C-542.08763633 527.12411529 -553.3437347 527.9119332 -563.34375 522.62890625 C-567.40950176 519.22502105 -570.03204479 515.60332205 -571.03125 510.37890625 C-572.72671127 489.60950565 -564.32702592 470.92020519 -554.55078125 453.20849609 C-554.0815625 452.34949707 -553.61234375 451.49049805 -553.12890625 450.60546875 C-552.70101807 449.83799316 -552.27312988 449.07051758 -551.83227539 448.27978516 C-551.56793701 447.65249512 -551.30359863 447.02520508 -551.03125 446.37890625 C-551.36125 445.71890625 -551.69125 445.05890625 -552.03125 444.37890625 C-552.93665527 444.48549561 -552.93665527 444.48549561 -553.86035156 444.59423828 C-583.95782479 448.03083501 -583.95782479 448.03083501 -594.03125 440.37890625 C-598.39558001 435.25081849 -598.64859545 430.58757085 -598.40625 423.9609375 C-595.2888415 394.18319175 -572.9599275 366.27241286 -550.59375 347.81640625 C-548.74036775 346.33625684 -546.88623041 344.8570523 -545.03125 343.37890625 C-544.26425781 342.73308594 -543.49726562 342.08726562 -542.70703125 341.421875 C-516.62941728 319.68315096 -484.99735603 306.35577009 -452.03125 299.37890625 C-451.20850586 299.19956543 -450.38576172 299.02022461 -449.53808594 298.83544922 C-425.21949258 293.76529942 -396.2615175 293.99902723 -372.03125 299.37890625 C-371.23315918 299.55583008 -370.43506836 299.73275391 -369.61279297 299.91503906 C-364.02226235 301.19978494 -358.51757957 302.70644905 -353.03125 304.37890625 C-352.32581055 304.59385742 -351.62037109 304.80880859 -350.89355469 305.03027344 C-306.95720247 318.77193759 -267.83732804 348.78195398 -245.78125 389.44140625 C-237.7029997 404.92257542 -232.34333703 422.07811711 -230.03125 439.37890625 C-229.90234375 440.3328125 -229.7734375 441.28671875 -229.640625 442.26953125 C-225.26904049 481.61379186 -237.48815571 523.76910989 -262.0234375 554.7265625 C-274.23456091 569.71365512 -287.97727657 581.70998413 -304.03125 592.37890625 C-304.93520508 592.98001221 -304.93520508 592.98001221 -305.85742188 593.59326172 C-322.2448298 604.31204017 -340.91223816 613.88031523 -360.03125 618.37890625 C-360.70043457 618.53681641 -361.36961914 618.69472656 -362.05908203 618.85742188 C-386.66780061 624.41625861 -419.33775466 624.02261071 -441.78125 610.87890625 C-445.77417048 608.07592896 -448.47444039 605.04933509 -450.03125 600.37890625 C-450.83206372 592.40156961 -449.05245374 585.05466807 -447.03125 577.37890625 C-447.89121582 577.62797729 -447.89121582 577.62797729 -448.76855469 577.88208008 C-451.43881678 578.65407823 -454.10994631 579.4230201 -456.78125 580.19140625 C-457.7410376 580.46839355 -458.7008252 580.74538086 -459.68969727 581.03076172 C-464.76044821 582.48346103 -469.82314221 583.83652502 -474.96875 585.00390625 C-479.40057931 586.12604795 -482.71446247 587.06211872 -486.03125 590.37890625 C-487.76074565 593.91250324 -488.8480841 597.63360291 -490.03125 601.37890625 C-496.16480946 619.87727983 -505.14558639 634.47308778 -516.47412109 650.21289062 C-521.04203998 656.56701047 -525.54657932 662.96585796 -530.03125 669.37890625 C-530.48274414 670.02069824 -530.93423828 670.66249023 -531.39941406 671.32373047 C-542.94722457 687.81271229 -551.85997095 703.20368084 -548.6328125 723.93896484 C-547.75826645 728.43026335 -546.69060104 732.86878354 -545.5703125 737.30444336 C-545.3177771 738.30492203 -545.0652417 739.3054007 -544.80505371 740.3361969 C-544.08467784 743.16882016 -543.3569911 745.99944415 -542.62695312 748.82958984 C-538.83350423 763.61501592 -535.61449323 778.46842419 -532.65625 793.44140625 C-532.4085788 794.6877887 -532.16090759 795.93417114 -531.9057312 797.21832275 C-518.00633365 867.21806629 -505.48816708 937.5167598 -494.58984375 1008.046875 C-494.31184433 1009.84208084 -494.31184433 1009.84208084 -494.02822876 1011.67355347 C-493.19272823 1017.08080447 -492.3671992 1022.48915462 -491.56445312 1027.90136719 C-488.48865935 1048.35769473 -484.69273371 1067.53100611 -469.03125 1082.37890625 C-468.58967025 1082.87764566 -468.1480905 1083.37638508 -467.69312954 1083.89023781 C-464.18113548 1087.48712938 -461.52591485 1088.7959531 -456.48194885 1089.10043335 C-454.27257928 1089.11773936 -452.0627977 1089.10206826 -449.85375977 1089.06005859 C-448.64329483 1089.06093475 -447.4328299 1089.06181091 -446.1856842 1089.06271362 C-442.88365637 1089.05926159 -439.58390935 1089.02928254 -436.28228498 1088.98726988 C-432.82570515 1088.94963314 -429.36909137 1088.94622742 -425.91233826 1088.93911743 C-419.37449325 1088.92050621 -412.83725386 1088.87132086 -406.29967493 1088.81102049 C-398.85354903 1088.74383832 -391.40739344 1088.71093714 -383.96103966 1088.68084788 C-368.65075966 1088.61821749 -353.34108308 1088.5127564 -338.03125 1088.37890625 C-339.13108249 1086.63432482 -340.23306642 1084.89109962 -341.3359375 1083.1484375 C-341.94937012 1082.17753174 -342.56280273 1081.20662598 -343.19482422 1080.20629883 C-345.63425966 1076.45050226 -348.27388229 1072.9039502 -351.03125 1069.37890625 C-351.7325 1068.40953125 -352.43375 1067.44015625 -353.15625 1066.44140625 C-364.98351625 1052.56711315 -381.05210107 1048.4777391 -398.13671875 1045.484375 C-425.90673577 1040.54492523 -425.90673577 1040.54492523 -432.03125 1032.37890625 C-433.54574062 1028.10881816 -434.46898462 1023.74413789 -435.40625 1019.31640625 C-435.70381821 1017.96180778 -436.00226246 1016.60740149 -436.30151367 1015.25317383 C-437.08585838 1011.67019968 -437.84167352 1008.08178769 -438.58917236 1004.4909668 C-439.00788805 1002.4905198 -439.43698914 1000.4922548 -439.86669922 998.49414062 C-449.25355169 954.61775909 -454.94406118 909.86700163 -461.09375 865.44140625 C-461.1912429 864.73773045 -461.28873581 864.03405464 -461.38918304 863.30905533 C-462.03611878 858.63633717 -462.67777167 853.96292259 -463.31640625 849.2890625 C-463.55631538 847.54335968 -463.55631538 847.54335968 -463.80107117 845.76239014 C-465.31477144 834.5979186 -466.2407131 823.67684195 -466.27148438 812.40429688 C-466.28113949 810.27823979 -466.31224164 808.15317348 -466.34375 806.02734375 C-466.60783568 772.01684549 -450.77249347 745.05464836 -427.53125 721.37890625 C-412.58670917 706.53996092 -395.83320556 695.79181806 -377.703125 685.26953125 C-371.71304832 681.79219734 -365.7905754 678.21948413 -359.90625 674.56640625 C-358.63841675 673.78027954 -358.63841675 673.78027954 -357.3449707 672.97827148 C-352.53759683 669.98218111 -347.77644626 666.92266417 -343.03930664 663.81689453 C-323.6826024 651.13914651 -323.6826024 651.13914651 -317.13671875 651.5703125 C-313.02487225 653.14944465 -310.17372101 656.61842554 -307.06640625 659.64453125 C-279.51850278 685.50619644 -226.61046383 689.44548382 -190.94775391 688.48388672 C-156.63290345 687.24871296 -123.52374191 680.05610623 -92.03125 666.37890625 C-91.31453125 666.07404297 -90.5978125 665.76917969 -89.859375 665.45507812 C-71.06236651 657.39673097 -54.00093589 646.07161438 -38.03125 633.37890625 C-37.01933594 632.59128906 -36.00742188 631.80367187 -34.96484375 630.9921875 C-27.28005232 624.77021165 -20.28766356 617.84240833 -13.28125 610.87890625 C-12.79115448 610.3941684 -12.30105896 609.90943054 -11.79611206 609.41000366 C-5.07982576 602.74944367 1.13042212 595.82576741 6.96875 588.37890625 C7.5580127 587.63398926 8.14727539 586.88907227 8.75439453 586.12158203 C31.93804251 556.44624043 47.99773661 522.78226247 55.84375 485.94140625 C56.03493408 485.04437988 56.22611816 484.14735352 56.4230957 483.22314453 C59.40991367 468.14398455 60.35406904 453.03305389 60.28125 437.69140625 C60.27909485 436.86540924 60.2769397 436.03941223 60.27471924 435.18838501 C60.04535605 380.12730013 39.10855908 333.53770807 10.83056641 287.42041016 C-48.04151224 191.24569789 -48.04151224 191.24569789 -48.32641602 143.63769531 C-48.34358911 141.64755145 -48.38748985 139.65769692 -48.43164062 137.66796875 C-48.51076021 125.5200693 -46.00701126 115.81434146 -37.59375 106.75390625 C-17.28845049 87.93436037 11.39460146 84.47522967 37.83251953 82.72216797 C60.92556332 81.76153496 60.92556332 81.76153496 80.46875 71.00390625 C82.52353996 67.40802382 82.67355369 65.46676766 81.96875 61.37890625 C79.04259522 55.92665691 74.79963201 53.47907682 69.18408203 51.34057617 C62.31493039 49.28608959 55.17328804 48.42505822 48.09375 47.37890625 C20.73162965 43.31738522 20.73162965 43.31738522 16.0480957 38.33618164 C14.481272 36.09286464 13.21808808 33.81263211 11.96875 31.37890625 C1.83367017 13.21661219 -12.76401495 1.33764913 -32.88012695 -4.40625 C-63.74457101 -12.69509734 -96.82532706 -4.95879836 -119.15625 18.50390625 Z M-539.03125 351.37890625 C-539.88976562 352.14074219 -540.74828125 352.90257812 -541.6328125 353.6875 C-543.33089297 355.20859021 -545.02129214 356.73830802 -546.703125 358.27734375 C-548.74891737 360.12404894 -550.8437868 361.87537971 -552.96875 363.62890625 C-568.78826566 377.54627573 -581.98162378 397.31906852 -587.40625 417.62890625 C-587.58671875 418.29100098 -587.7671875 418.9530957 -587.953125 419.63525391 C-589.06269987 424.16791271 -589.15599968 427.84599547 -588.03125 432.37890625 C-580.0813102 437.67886612 -570.00280988 437.19001912 -560.84375 435.87890625 C-548.17906937 434.21796453 -548.17906937 434.21796453 -543.03125 437.37890625 C-540.4734071 440.83199417 -540.77751754 444.21017195 -541.03125 448.37890625 C-542.23706055 451.4140625 -542.23706055 451.4140625 -543.91796875 454.44140625 C-544.52487549 455.56144043 -545.13178223 456.68147461 -545.75708008 457.83544922 C-546.07834869 458.4150238 -546.39961731 458.99459839 -546.73062134 459.59173584 C-554.3597377 473.39007156 -561.03845732 486.81087028 -561.34375 502.87890625 C-561.38113281 504.16796875 -561.41851563 505.45703125 -561.45703125 506.78515625 C-560.96393306 510.94708594 -560.06249061 512.53346848 -557.03125 515.37890625 C-544.94750085 520.53226986 -528.09313985 514.29973931 -516.59375 510.00390625 C-511.00875067 508.03273002 -507.60427653 508.52123074 -502.03125 510.37890625 C-499.82940091 516.53813276 -499.88635545 520.32357833 -502.609375 526.2265625 C-504.52484746 530.47322808 -506.11272746 534.82007706 -507.71875 539.19140625 C-508.02804443 540.01624512 -508.33733887 540.84108398 -508.65600586 541.69091797 C-512.0400006 550.82854208 -513.21638993 559.67435879 -512.03125 569.37890625 C-509.17227235 575.05554684 -504.25702603 578.01118392 -499.03125 581.37890625 C-496.65625 584.12890625 -496.65625 584.12890625 -495.03125 586.37890625 C-494.391875 585.47140625 -493.7525 584.56390625 -493.09375 583.62890625 C-487.24317453 576.67766715 -477.28259803 575.22662397 -468.84375 573.25390625 C-466.74558582 572.75342672 -464.64791222 572.2508852 -462.55078125 571.74609375 C-461.58277588 571.5133374 -460.61477051 571.28058105 -459.61743164 571.04077148 C-456.70287735 570.2948679 -453.88017777 569.34198718 -451.03125 568.37890625 C-447.2882609 568.05057387 -444.73730211 568.11217545 -441.21875 569.44140625 C-438.88366844 571.50962135 -437.80894761 573.17975746 -437.1015625 576.234375 C-436.9826991 579.85970881 -438.22380862 583.09124841 -439.26953125 586.53125 C-440.01762646 589.32797517 -440.43450186 591.86591974 -440.59375 594.75390625 C-440.63628906 595.52476562 -440.67882812 596.295625 -440.72265625 597.08984375 C-439.63581052 600.68810137 -437.11579933 602.48161273 -434.03125 604.37890625 C-431.38254051 605.54153773 -428.69878073 606.32495877 -425.90625 607.06640625 C-424.88144531 607.36514648 -424.88144531 607.36514648 -423.8359375 607.66992188 C-412.68665026 610.7954114 -401.77293603 611.74193796 -390.21875 611.69140625 C-389.557612 611.68958344 -388.896474 611.68776062 -388.21530151 611.68588257 C-378.44027224 611.64050669 -369.43638612 611.20957829 -360.03125 608.37890625 C-358.8246875 608.03859375 -357.618125 607.69828125 -356.375 607.34765625 C-346.69114387 604.3864771 -337.93253687 600.14225326 -329.03125 595.37890625 C-328.29438965 594.99041504 -327.5575293 594.60192383 -326.79833984 594.20166016 C-300.19858399 580.13213309 -277.73223443 561.58598213 -261.03125 536.37890625 C-260.40476562 535.43789063 -259.77828125 534.496875 -259.1328125 533.52734375 C-239.85106849 502.55440654 -234.16725587 462.73536081 -242.03125 427.37890625 C-242.1869043 426.67781738 -242.34255859 425.97672852 -242.50292969 425.25439453 C-248.15245151 401.11706626 -261.12354886 380.18436143 -278.03125 362.37890625 C-279.08228545 361.13677344 -280.12528122 359.88774414 -281.15625 358.62890625 C-284.43633118 354.78548703 -288.12591963 351.57417656 -292.03125 348.37890625 C-292.94519531 347.62738281 -293.85914063 346.87585938 -294.80078125 346.1015625 C-364.51626724 290.59225101 -471.70935611 291.35566428 -539.03125 351.37890625 Z " fill="#000000" transform="translate(1072.03125,41.62109375)"/>
<path d="M0 0 C1.59462115 1.40796588 3.18124451 2.82417943 4.76342773 4.24609375 C5.43889648 4.84808594 6.11436523 5.45007813 6.81030273 6.0703125 C25.23224051 23.48342987 38.34618045 46.90875875 44.76342773 71.24609375 C45.24489258 73.05400391 45.24489258 73.05400391 45.73608398 74.8984375 C53.52437928 109.42050921 43.80253763 146.58767343 25.34936523 176.1875 C0.65081129 214.62940994 -34.92030556 234.77810732 -78.82543945 244.83935547 C-95.96317483 248.50425462 -113.13878847 245.88470972 -129.23657227 239.24609375 C-132.3267855 236.81337269 -133.89360922 235.18924213 -135.23657227 231.49609375 C-135.23657227 223.53125053 -131.8696222 218.34164789 -126.84204102 212.41796875 C-123.25897503 208.15137742 -120.02584743 203.6148747 -116.73657227 199.12109375 C-116.10066162 198.25436035 -115.46475098 197.38762695 -114.80957031 196.49462891 C-113.28344988 194.41308298 -111.75910287 192.33026612 -110.23657227 190.24609375 C-111.38770508 190.81457031 -112.53883789 191.38304687 -113.72485352 191.96875 C-136.80827884 203.22632882 -170.03124664 218.76887749 -196.42797852 212.74609375 C-200.64987294 211.194834 -202.34641325 209.21268832 -204.23657227 205.24609375 C-207.76942857 180.48665918 -195.25352671 156.55738672 -181.45410156 137.09863281 C-180.21206425 135.20880344 -179.20694551 133.28678558 -178.23657227 131.24609375 C-178.92356201 131.592771 -179.61055176 131.93944824 -180.31835938 132.29663086 C-192.88662071 138.59794978 -205.41701994 144.630114 -218.67407227 149.37109375 C-220.15218384 149.90077759 -220.15218384 149.90077759 -221.66015625 150.44116211 C-242.10367893 157.52901118 -242.10367893 157.52901118 -250.23657227 155.24609375 C-253.23834782 153.26619924 -254.75316362 151.75036536 -255.86547852 148.2890625 C-259.60147416 125.20454203 -245.73633268 100.40610219 -232.87548828 82.38916016 C-224.20575703 70.5639567 -213.86977519 58.89250604 -201.23657227 51.24609375 C-207.85157248 53.32938927 -214.21934185 55.83219533 -220.63037109 58.47387695 C-230.97008916 62.733528 -241.31079706 66.89742747 -252.04907227 70.05859375 C-252.85828125 70.30649658 -253.66749023 70.55439941 -254.5012207 70.80981445 C-261.21760554 72.6742976 -267.01145376 72.32113325 -273.61157227 70.12109375 C-277.00247673 67.69901913 -278.42438181 65.25237936 -279.23657227 61.24609375 C-279.95729198 45.60047003 -269.9718065 30.53824964 -260.23657227 19.24609375 C-259.53532227 18.42238281 -258.83407227 17.59867187 -258.11157227 16.75 C-227.45162362 -18.34469121 -182.39276723 -38.66277587 -136.37426758 -42.54296875 C-85.69797698 -45.9497782 -38.51678864 -33.53558365 0 0 Z M-241.77075195 15.85205078 C-243.20551594 17.21655817 -244.66227549 18.55781799 -246.11938477 19.8984375 C-257.49255187 30.68552218 -267.04919566 44.21650953 -268.23657227 60.24609375 C-262.78173857 61.37507635 -258.7673351 60.97743843 -253.43969727 59.26953125 C-252.70624084 59.04365326 -251.97278442 58.81777527 -251.21710205 58.58505249 C-243.4181565 56.11084223 -235.878495 53.02163877 -228.33938599 49.85681152 C-202.45386632 39.01200193 -178.14586856 29.99593072 -149.73657227 30.18359375 C-148.43719727 30.18810547 -147.13782227 30.19261719 -145.79907227 30.19726562 C-142.61152401 30.20898455 -139.42407272 30.22539156 -136.23657227 30.24609375 C-136.23657227 32.22609375 -136.23657227 34.20609375 -136.23657227 36.24609375 C-137.14922852 36.37564453 -137.14922852 36.37564453 -138.08032227 36.5078125 C-162.98764796 40.50031029 -186.30135245 51.70017612 -205.23657227 68.24609375 C-205.99196289 68.85710937 -206.74735352 69.468125 -207.52563477 70.09765625 C-227.65204968 86.81040362 -242.19354749 113.36589254 -245.23657227 139.24609375 C-245.27498326 141.24572486 -245.28878181 143.24677533 -245.23657227 145.24609375 C-217.19437803 142.09456275 -190.06917549 125.2799243 -165.29907227 112.68359375 C-138.8424113 99.24609375 -138.8424113 99.24609375 -130.23657227 99.24609375 C-134.25373884 104.38081795 -138.73767373 108.60807042 -143.73657227 112.74609375 C-168.15464597 133.12087216 -189.86363936 160.7190849 -193.69750977 193.14453125 C-193.94115856 196.18026348 -194.13234754 199.20273169 -194.23657227 202.24609375 C-162.86510299 203.76679334 -129.60362037 191.2172083 -104.23657227 173.24609375 C-102.56261193 172.07738152 -100.8880702 170.90950184 -99.21313477 169.7421875 C-94.83849219 166.68943515 -90.47742552 163.61802912 -86.125 160.53369141 C-84.23657227 159.24609375 -84.23657227 159.24609375 -82.23657227 158.24609375 C-89.33610526 179.74081242 -102.27935145 199.06536241 -116.53344727 216.46826172 C-121.8741793 222.71841659 -121.8741793 222.71841659 -124.23657227 230.24609375 C-122.02947243 230.89613 -119.82083334 231.5409412 -117.61157227 232.18359375 C-116.38180664 232.54324219 -115.15204102 232.90289063 -113.88500977 233.2734375 C-97.29494891 237.69626957 -81.36319822 235.21512605 -65.23657227 230.24609375 C-64.41543945 229.99972168 -63.59430664 229.75334961 -62.74829102 229.49951172 C-43.90047888 223.7449927 -26.20833437 215.16692954 -11.23657227 202.24609375 C-10.27493164 201.43398438 -9.31329102 200.621875 -8.32250977 199.78515625 C16.77576528 177.86737887 34.68584212 143.45188016 36.9831543 110.05151367 C37.49663812 95.68799033 37.11680646 82.00528847 32.76342773 68.24609375 C32.54912109 67.56015137 32.33481445 66.87420898 32.11401367 66.16748047 C25.56950264 45.86234908 13.36401677 29.55484259 -1.23657227 14.24609375 C-2.02676758 13.39144531 -2.81696289 12.53679687 -3.63110352 11.65625 C-14.14833997 0.61576795 -26.78945075 -7.70803433 -40.23657227 -14.75390625 C-41.38254883 -15.35976563 -42.52852539 -15.965625 -43.70922852 -16.58984375 C-59.4157811 -24.56722706 -76.83884391 -28.56664859 -94.23657227 -30.75390625 C-94.9698877 -30.84816895 -95.70320312 -30.94243164 -96.45874023 -31.03955078 C-150.17006627 -37.21110911 -202.53897071 -21.65767538 -241.77075195 15.85205078 Z " fill="#000000" transform="translate(776.236572265625,397.75390625)"/>
<path d="M0 0 C1.5228898 1.10132861 3.04368103 2.20556414 4.5625 3.3125 C20.83380419 13.9989341 39.18792729 18.6047864 58.2421875 21.44140625 C61.95119985 22.41447655 63.84638134 23.63588852 66.5625 26.3125 C68.37248611 30.30955266 68.82599498 32.38148442 67.625 36.625 C64.15042343 43.42373858 59.30408133 49.41545701 54.54785156 55.34741211 C25.24288067 91.9585125 23.84113365 128.04112943 28.77216816 172.93233681 C34.24687537 221.98530015 41.1195322 270.85805324 50.5625 319.3125 C50.78740112 320.46897034 50.78740112 320.46897034 51.0168457 321.64880371 C51.97065885 326.5408158 52.94574016 331.42803632 53.9375 336.3125 C54.1761377 337.49408691 54.41477539 338.67567383 54.66064453 339.89306641 C54.88349121 340.95960449 55.10633789 342.02614258 55.3359375 343.125 C55.52591309 344.03894531 55.71588867 344.95289063 55.91162109 345.89453125 C56.57000936 348.34039673 57.14310259 350.21030043 58.5625 352.3125 C66.26094954 356.54705286 75.75725998 357.84183536 84.25 359.6875 C107.79577903 364.97628286 129.85206653 372.96018558 143.5625 394.3125 C150.94661911 407.25633793 150.94661911 407.25633793 151.5625 413.3125 C150.33524821 417.26697798 149.43669649 419.64004116 146.125 422.1875 C142.39854654 423.82350396 139.21692627 424.43702425 135.15583801 424.45294189 C134.27985962 424.45865204 133.40388123 424.46436218 132.50135803 424.47024536 C131.54805099 424.47136322 130.59474396 424.47248108 129.61254883 424.47363281 C128.09717026 424.48108017 128.09717026 424.48108017 126.55117798 424.48867798 C123.20728881 424.50328821 119.86344711 424.51010039 116.51953125 424.515625 C114.19268289 424.52137819 111.86583454 424.52713591 109.53898621 424.53289795 C104.6574176 424.54340526 99.77586544 424.54924943 94.89428711 424.55273438 C88.65120689 424.5582129 82.40834545 424.58222856 76.16533375 424.61070633 C71.35680007 424.62936863 66.54831865 424.63454027 61.73975182 424.63607025 C59.43894952 424.63909011 57.138148 424.64709603 54.83738136 424.66025543 C51.61122844 424.6773877 48.3856043 424.67541776 45.15942383 424.66894531 C44.21623795 424.6781601 43.27305206 424.68737488 42.30128479 424.6968689 C34.6652945 424.64909104 27.89890634 422.98345454 21.28125 419.078125 C20.58894287 418.67255371 19.89663574 418.26698242 19.18334961 417.84912109 C18.48346924 417.42453613 17.78358887 416.99995117 17.0625 416.5625 C15.95177124 415.89661865 15.95177124 415.89661865 14.81860352 415.21728516 C9.42350349 411.93764317 4.29346487 408.5124382 -0.4375 404.3125 C-1.13101563 403.70019531 -1.82453125 403.08789062 -2.5390625 402.45703125 C-16.71552663 389.15664075 -19.87589264 370.99624189 -22.60287476 352.59405518 C-23.24988171 348.23860419 -23.93004683 343.88847567 -24.60740662 339.53765869 C-24.97464045 337.17731781 -25.34046618 334.81675747 -25.70497131 332.45599365 C-27.92274492 318.10198837 -30.25003685 303.76621336 -32.625 289.4375 C-32.73904049 288.74932442 -32.85308098 288.06114883 -32.97057724 287.35211945 C-38.29314049 255.27960054 -44.32574316 223.352879 -50.61993408 191.45825195 C-51.16655846 188.68821515 -51.7115916 185.91787335 -52.25506592 183.1472168 C-53.84083969 175.06290383 -55.43914113 166.98126433 -57.05691528 158.90328979 C-57.54902125 156.44252147 -58.03847554 153.98122089 -58.52487183 151.51931763 C-63.14499993 128.19607926 -69.46364131 105.58937988 -77.046875 83.0690918 C-77.76402374 80.93218881 -78.47219202 78.7924585 -79.1796875 76.65234375 C-79.5907373 75.42894287 -80.00178711 74.20554199 -80.42529297 72.94506836 C-82.64854012 64.96636735 -83.26724399 57.64929261 -79.2878418 50.14428711 C-75.54136752 44.31665583 -71.37793266 40.38541426 -65.8125 36.3125 C-65.01706787 35.71219971 -64.22163574 35.11189941 -63.40209961 34.4934082 C-61.09043184 32.75270156 -58.76606823 31.0305005 -56.4375 29.3125 C-55.28439927 28.45283736 -54.1319645 27.59228004 -52.98046875 26.73046875 C-51.04040142 25.27859661 -49.10029908 23.82677125 -47.16015625 22.375 C-40.66015564 17.45103971 -34.44981973 12.44736273 -28.80395508 6.55664062 C-20.33953433 -2.26284695 -11.38617338 -7.61751036 0 0 Z M-17.1875 10.25 C-17.88488281 10.89582031 -18.58226562 11.54164063 -19.30078125 12.20703125 C-20.67279631 13.55898028 -22.02632143 14.93010293 -23.35546875 16.32421875 C-30.6439293 23.95102176 -39.00036637 30.03272461 -47.4375 36.3125 C-48.59960881 37.18533253 -49.76112334 38.0589572 -50.921875 38.93359375 C-51.93765625 39.69800781 -52.9534375 40.46242188 -54 41.25 C-54.93972656 41.95898438 -55.87945313 42.66796875 -56.84765625 43.3984375 C-58.47759514 44.60306805 -60.12905309 45.77961165 -61.80859375 46.9140625 C-66.71401772 50.28035344 -69.83142303 53.4727773 -71.4375 59.3125 C-71.4882955 65.91345276 -69.85838439 72.01455635 -67.70703125 78.1953125 C-67.43412766 79.01208466 -67.16122406 79.82885681 -66.88005066 80.67037964 C-66.01326009 83.26287941 -65.13328588 85.850578 -64.25 88.4375 C-54.80203888 116.14615874 -49.02627361 144.39889029 -43.39844894 173.07785797 C-42.80567921 176.09724299 -42.21101167 179.11624945 -41.61599731 182.13519287 C-31.45811858 233.71629512 -22.30825474 285.42330601 -14.27734375 337.37890625 C-14.11795822 338.40867081 -13.95857269 339.43843536 -13.7943573 340.49940491 C-13.0557639 345.27923748 -12.3242419 350.05994313 -11.60693359 354.84301758 C-11.34868555 356.53858225 -11.09038783 358.23413936 -10.83203125 359.9296875 C-10.72285873 360.67517349 -10.61368622 361.42065948 -10.50120544 362.18873596 C-8.00554695 378.43544359 -0.66925076 391.44563138 12.5625 401.3125 C27.90652843 412.46718562 40.31194402 415.0142309 59.01953125 414.484375 C61.38843939 414.461925 63.75740419 414.44487596 66.12638855 414.43292236 C72.28775609 414.38763931 78.44559451 414.27025221 84.60559082 414.13647461 C90.92081993 414.01253831 97.2366333 413.95866321 103.55273438 413.8984375 C115.89085276 413.77069047 128.2263802 413.56656295 140.5625 413.3125 C139.32218491 410.75545856 138.07371212 408.20296328 136.8203125 405.65234375 C136.47331299 404.93477905 136.12631348 404.21721436 135.76879883 403.47790527 C128.36739677 388.48213297 115.52256619 379.94567276 100.0625 374.6875 C93.72685393 372.62549093 87.31860557 370.97833698 80.82421875 369.5 C80.15725983 369.34786041 79.4903009 369.19572083 78.8031311 369.03897095 C75.49625037 368.29067467 72.18765245 367.5711693 68.8671875 366.88427734 C53.35888371 363.53738232 53.35888371 363.53738232 49.43334961 357.60653687 C46.93886551 352.59679199 45.51224251 347.7939498 44.44921875 342.3125 C44.27416306 341.45683441 44.09910736 340.60116882 43.91874695 339.71957397 C43.3500628 336.91955236 42.79910798 334.11642156 42.25 331.3125 C41.85459007 329.32888683 41.4589153 327.34532643 41.06298828 325.36181641 C39.87066868 319.35020502 38.70956507 313.33289705 37.5625 307.3125 C37.31279449 306.00242981 37.31279449 306.00242981 37.05804443 304.66589355 C28.58630204 260.00417317 23.1013259 214.89723581 17.9453125 169.75390625 C17.81959869 168.65701981 17.69388489 167.56013336 17.56436157 166.43000793 C14.27713688 137.37195937 12.63054421 108.3184906 25.5625 81.3125 C26.05194092 80.2901123 26.05194092 80.2901123 26.55126953 79.24707031 C33.44409095 65.11405244 42.1010804 52.83983669 52.43359375 41.03125 C54.61215488 38.24908752 56.03032589 35.48466687 57.5625 32.3125 C56.76779297 32.16216309 55.97308594 32.01182617 55.15429688 31.85693359 C32.77863397 27.57161193 12.31902131 22.90031412 -6.1484375 8.6328125 C-10.61978093 6.05377823 -13.55789156 6.82979204 -17.1875 10.25 Z " fill="#000000" transform="translate(759.4375,716.6875)"/>
<path d="M0 0 C3.93569138 2.71750119 6.09949521 5.16591833 7.5625 9.75 C7.67021676 15.02812146 5.49234637 17.83937968 2.0625 21.6875 C-1.37189435 24.3037756 -4.60203687 24.58948216 -8.83984375 24.359375 C-13.93647066 23.25994855 -17.64695848 20.33679594 -20.5703125 16.06640625 C-21.9723904 13.23067211 -22.375 10.83216558 -22.375 7.6875 C-21.10234599 4.02861971 -19.33019116 2.2751593 -16.375 -0.1875 C-10.93882947 -1.99955684 -5.39284814 -1.8974836 0 0 Z M-10.375 8.8125 C-10.375 9.8025 -10.375 10.7925 -10.375 11.8125 C-7.9 12.8025 -7.9 12.8025 -5.375 13.8125 C-4.715 12.8225 -4.055 11.8325 -3.375 10.8125 C-6.32877498 8.44269987 -6.32877498 8.44269987 -10.375 8.8125 Z " fill="#000000" transform="translate(1033.375,74.1875)"/>
</svg>
